<svg width="64" height="64" viewBox="0 0 64 64" fill="none" xmlns="http://www.w3.org/2000/svg">
  <rect width="64" height="64" rx="18" fill="url(#bg)" />
  <path d="M32 10C21.8381 10 13.1653 16.5986 9.6 25.7587C14.9558 21.7802 22.4386 20.4824 28.9725 22.8304C35.5065 25.1774 40.6978 30.8824 42.3803 37.609C44.0629 44.3356 42.0169 51.4215 37.2354 56.3075C46.8358 54.0281 54.3744 46.1802 54.3744 36.2687C54.3744 21.7466 42.6018 10 28.0959 10H32Z" fill="#081015" fill-opacity="0.92"/>
  <path d="M32 54C42.1619 54 50.8347 47.4014 54.4 38.2413C49.0442 42.2198 41.5614 43.5176 35.0275 41.1696C28.4935 38.8226 23.3022 33.1176 21.6197 26.391C19.9371 19.6644 21.9831 12.5785 26.7646 7.69249C17.1642 9.97185 9.62558 17.8198 9.62558 27.7313C9.62558 42.2534 21.3982 54 35.9041 54H32Z" fill="#081015" fill-opacity="0.76"/>
  <circle cx="32" cy="32" r="7.5" fill="#081015"/>
  <defs>
    <linearGradient id="bg" x1="8" y1="7" x2="56" y2="57" gradientUnits="userSpaceOnUse">
      <stop stop-color="#79E5D2"/>
      <stop offset="1" stop-color="#CFFFF6"/>
    </linearGradient>
  </defs>
</svg>
